<svg viewBox="0 0 1024 1024" fill= "#0d61ab" version="1.1" xmlns="http://www.w3.org/2000/svg" class=""><path d="M791.823 692.774h-111.837c-23.202-40.312-66.748-67.52-116.532-67.52-49.805 0-93.351 27.208-116.553 67.52h-175.268l-35.554-52.017 34.469-82.397h655.23v45.111l-133.955 89.303zM563.433 816.338c-31.465 0-57.087-25.539-57.087-56.962 0-31.381 25.622-56.92 57.087-56.92 31.486 0 57.108 25.539 57.108 56.92 0 31.423-25.622 56.962-57.108 56.962v0zM399.182 250.787h487.015l39.581 41.96v188.413h-622.952l96.356-230.373zM919.539 173.586h-569.453l-202.601 474.308 30.651 44.881h-157.136v77.201h409c5.592 69.168 64.056 123.105 133.433 123.105 69.398 0 127.883-53.937 133.475-123.105h118.285l187.808-125.191v-382.71l-83.461-88.489z"></path></svg>