<svg viewBox="0 0 1024 1024"    height="154px"
    width="54px" fill= "#0d61ab" version="1.1" xmlns="http://www.w3.org/2000/svg" class=""><path d="M813.573 272.117h-347.426l-181.351 179.131h-165.441l-111.792 111.844v164.754h117.606c15.381 52.381 63.745 90.702 121.042 90.702s105.713-38.321 121.042-90.702h290.13c15.434 52.381 63.851 90.702 121.094 90.702s105.66-38.321 121.042-90.702h116.919v-252.866l-202.811-202.864zM246.158 743.017c-27.908 0-50.637-22.675-50.637-50.584s22.675-50.584 50.637-50.584c27.855 0 50.584 22.675 50.584 50.584s-22.675 50.584-50.584 50.584zM778.424 743.017c-27.908 0-50.637-22.675-50.637-50.584s22.675-50.584 50.637-50.584c27.855 0 50.584 22.675 50.584 50.584s-22.675 50.584-50.584 50.584zM940.852 652.262h-42.92c-16.914-49.949-64.009-86.050-119.509-86.050s-102.647 36.101-119.509 86.050h-293.195c-16.914-49.949-64.062-86.050-119.562-86.050s-102.647 36.101-119.509 86.050h-43.501v-57.878l67.498-67.551h165.124l181.404-179.131h285.003l158.623 158.517v146.043z"></path></svg>