<svg viewBox="0 0 1024 1024" height="154px"
    width="54px"   fill= "#0d61ab"  version="1.1" xmlns="http://www.w3.org/2000/svg" class=""><path d="M373.429 180.271v165.212h-136.413l-225.442 225.442v194.642h85.975c5.265 67.496 61.81 120.829 130.621 120.829s125.357-53.333 130.621-120.829h297.044c5.265 67.496 61.81 120.829 130.621 120.829s125.357-53.333 130.621-120.829h95.347v-585.296h-638.997zM228.223 811.002c-30.852 0-55.913-25.061-55.913-55.913 0-30.799 25.061-55.86 55.913-55.86s55.808 25.113 55.808 55.86c0 30.852-25.008 55.913-55.808 55.913zM373.429 690.279h-31.431c-22.639-39.487-65.126-66.285-113.827-66.285s-91.24 26.798-113.879 66.285h-27.483v-88.187l181.375-181.322h105.245v269.509zM786.458 811.002c-30.799 0-55.913-25.061-55.913-55.913 0-30.799 25.113-55.86 55.913-55.86 30.852 0 55.86 25.113 55.86 55.86 0 30.852-25.008 55.913-55.86 55.913zM937.138 690.279h-36.854c-22.639-39.487-65.126-66.285-113.827-66.285s-91.24 26.798-113.827 66.285h-223.862v-434.72h488.369v434.72z"></path></svg>