<svg viewBox="0 0 1024 1024" fill= "#0d61ab" version="1.1" xmlns="http://www.w3.org/2000/svg" class=""><path d="M999.214 385.993h-326.095l-77.358 77.358h-148.337l-149.314 149.366h-32.712l-68.922-69.025 163.253-163.253h61.053v-73.603h-91.553l-213.402 213.505v44.748c-52.618 15.945-91.039 64.91-91.039 122.569 0 70.723 57.504 128.175 128.123 128.175s128.226-57.452 128.226-128.175c0-0.411-0.103-0.874-0.103-1.337h289.165c0 0.463-0.051 0.926-0.051 1.337 0 70.723 57.555 128.175 128.175 128.175s128.123-57.452 128.123-128.175c0-35.49-14.556-67.585-37.907-90.885l210.624-210.727zM152.91 742.228c-30.089 0-54.521-24.483-54.521-54.623 0-30.089 24.431-54.572 54.521-54.572s54.623 24.534 54.623 54.572c0 30.141-24.483 54.623-54.623 54.623zM594.578 612.716h-192.365l75.712-75.763h148.337l77.306-77.409h118.094l-101.789 101.892c-6.995-1.183-14.145-1.955-21.551-1.955-42.742 0-80.495 21.037-103.795 53.235zM698.373 742.228c-30.089 0-54.572-24.483-54.572-54.623 0-30.089 24.483-54.572 54.572-54.572s54.572 24.534 54.572 54.572c0 30.141-24.431 54.623-54.572 54.623z"></path></svg>