<svg viewBox="0 0 1024 1024" fill= "#0d61ab" version="1.1" xmlns="http://www.w3.org/2000/svg" class=""><path d="M512 410.371c-67.818 0-123.065 55.144-123.065 122.962s55.246 123.064 123.065 123.064c67.818 0 123.064-55.195 123.064-123.064s-55.246-122.962-123.064-122.962zM512 583.315c-27.495 0-49.931-22.436-49.931-49.982s22.436-49.88 49.931-49.88c27.546 0 49.931 22.334 49.931 49.88s-22.385 49.982-49.931 49.982zM833.511 569.874v-73.133h-52.282c-6.491-47.631-25.247-91.276-53.151-127.817l37.103-37.154-51.72-51.669-37.052 37.154c-36.592-27.904-80.186-46.711-127.869-53.1v-52.384h-73.082v52.384c-47.631 6.439-91.378 25.196-127.868 53.1l-37.103-37.154-51.72 51.669 37.103 37.154c-27.853 36.541-46.609 80.186-53.151 127.817h-52.231v73.133h52.231c6.542 47.682 25.298 91.378 53.151 127.869l-37.103 37.154 51.72 51.669 37.103-37.103c36.541 27.853 80.237 46.66 127.868 53.1v52.333h73.082v-52.333c47.682-6.439 91.327-25.247 127.869-53.1l37.052 37.103 51.72-51.669-37.103-37.154c27.853-36.49 46.66-80.186 53.151-127.869h52.282zM512 732.24c-109.675 0-198.855-89.181-198.855-198.907 0-109.623 89.181-198.855 198.855-198.855s198.855 89.232 198.855 198.855c0 109.726-89.181 198.907-198.855 198.907z"></path></svg>