<svg viewBox="0 0 1024 1024" height="154px"
    width="54px"  fill= "#0d61ab" version="1.1" xmlns="http://www.w3.org/2000/svg" class=""><path d="M981.859 702.985v0c-9.561-15.892-21.464-29.378-35.773-41.281 0 0-0.823 0-0.823-0.823-3.989-3.166-8.737-6.331-13.486-9.561-2.406-1.583-5.572-3.166-7.914-4.749-4.749-2.406-9.561-4.749-14.309-6.331-6.331-2.406-11.903-3.989-18.298-5.572-1.583-0.823-3.989-0.823-5.572-0.823-8.737-1.583-17.475-3.166-27.035-3.166-52.425 0-98.455 28.618-123.084 71.482h-206.47v-549.636h-263.706l-243.002 243.002v388.373h115.929c5.572 73.065 66.734 130.239 141.382 130.239s134.987-57.173 141.382-130.239h297.010c5.572 73.065 66.734 130.239 141.382 130.239 19.881 0 38.116-3.989 54.831-11.143 3.166-1.583 7.155-3.166 10.32-5.572 3.989-2.406 7.914-3.989 11.903-6.331 5.572-3.989 11.143-7.914 16.652-12.726 0.823-0.823 1.583-1.583 3.166-2.406 24.629-23.806 41.281-55.59 44.447-92.123v0c0-3.989 0.823-7.155 0.823-11.143 0-25.389-7.914-49.259-19.881-69.9zM278.938 833.224c-33.367 0-60.339-27.035-60.339-60.339s26.972-60.339 60.339-60.339c33.367 0 60.339 26.972 60.339 60.339s-26.972 60.339-60.339 60.339zM448.115 702.985h-45.27c-24.629-42.864-70.659-71.482-123.084-71.482s-98.455 28.618-123.084 71.482h-53.184v-273.204l196.149-196.149h148.537v469.416zM858.712 833.224c-33.367 0-60.339-27.035-60.339-60.339s27.035-60.339 60.339-60.339c33.367 0 60.339 26.972 60.339 60.339s-27.035 60.339-60.339 60.339z"></path></svg>